<svg width="45" height="45" viewBox="0 0 45 45" fill="none" xmlns="http://www.w3.org/2000/svg">
<rect width="45" height="45" rx="22.5" fill="#3CCF91"/>
<path d="M16.459 31.8755H11.9238V17.271H16.459V31.8755ZM14.189 15.2788C12.7388 15.2788 11.5625 14.0776 11.5625 12.6274C11.5625 11.9309 11.8392 11.2628 12.3318 10.7703C12.8243 10.2777 13.4924 10.001 14.189 10.001C14.8855 10.001 15.5536 10.2777 16.0462 10.7703C16.5387 11.2628 16.8154 11.9309 16.8154 12.6274C16.8154 14.0776 15.6387 15.2788 14.189 15.2788ZM33.4326 31.8755H28.9072V24.7661C28.9072 23.0718 28.873 20.8989 26.5493 20.8989C24.1914 20.8989 23.8301 22.7397 23.8301 24.644V31.8755H19.2998V17.271H23.6494V19.2632H23.7129C24.3184 18.1157 25.7974 16.9048 28.0039 16.9048C32.5938 16.9048 33.4375 19.9272 33.4375 23.853V31.8755H33.4326Z" fill="black"/>
</svg>
